<svg width="231" height="231" viewBox="0 0 231 231" fill="none" xmlns="http://www.w3.org/2000/svg">
<mask id="mask0_51_32" style="mask-type:alpha" maskUnits="userSpaceOnUse" x="0" y="0" width="231" height="231">
<rect x="0.53685" y="0.821106" width="229.788" height="229.788" rx="70" fill="url(#paint0_linear_51_32)"/>
</mask>
<g mask="url(#mask0_51_32)">
<rect x="0.53685" y="0.821106" width="229.788" height="229.788" rx="70" fill="url(#paint1_linear_51_32)"/>
<path d="M154.584 111.93L337.471 6.34051L337.471 217.52L154.584 111.93Z" fill="url(#paint2_linear_51_32)"/>
<path fill-rule="evenodd" clip-rule="evenodd" d="M-159.929 59.6501C-159.929 55.2319 -156.347 51.6501 -151.929 51.6501H152.391C156.809 51.6501 160.391 55.2319 160.391 59.6501V163.77C160.391 168.188 156.809 171.77 152.391 171.77H-151.929C-156.347 171.77 -159.929 168.188 -159.929 163.77V59.6501ZM-99.8688 171.77V173.78C-99.8688 178.198 -103.45 181.78 -107.869 181.78H-131.909C-136.327 181.78 -139.909 178.198 -139.909 173.78V171.77H-99.8688ZM140.371 173.78V171.77H100.331V173.78C100.331 178.198 103.913 181.78 108.331 181.78H132.371C136.789 181.78 140.371 178.198 140.371 173.78Z" fill="url(#paint3_linear_51_32)"/>
<path fill-rule="evenodd" clip-rule="evenodd" d="M-159.929 59.6501C-159.929 55.2319 -156.347 51.6501 -151.929 51.6501H152.391C156.809 51.6501 160.391 55.2319 160.391 59.6501V163.77C160.391 168.188 156.809 171.77 152.391 171.77H-151.929C-156.347 171.77 -159.929 168.188 -159.929 163.77V59.6501ZM-99.8688 171.77V173.78C-99.8688 178.198 -103.45 181.78 -107.869 181.78H-131.909C-136.327 181.78 -139.909 178.198 -139.909 173.78V171.77H-99.8688ZM140.371 173.78V171.77H100.331V173.78C100.331 178.198 103.913 181.78 108.331 181.78H132.371C136.789 181.78 140.371 178.198 140.371 173.78Z" fill="url(#paint4_radial_51_32)" fill-opacity="0.5"/>
<rect x="-53.2697" y="179.154" width="319.045" height="76.8549" fill="#1F1844"/>
<rect x="-162.538" y="80.6791" width="260.19" height="15.1548" rx="7.57738" fill="url(#paint5_linear_51_32)"/>
<rect x="-162.538" y="101.56" width="260.19" height="15.1548" rx="7.57738" fill="url(#paint6_linear_51_32)"/>
<rect x="-162.538" y="122.441" width="260.19" height="15.1548" rx="7.57738" fill="url(#paint7_linear_51_32)"/>
<path d="M160.391 76.6752H192.423C196.846 76.6752 200.431 80.2605 200.431 84.6832V138.737C200.431 143.16 196.846 146.745 192.423 146.745H160.391V76.6752Z" fill="url(#paint8_linear_51_32)"/>
<path d="M160.391 76.6752H192.423C196.846 76.6752 200.431 80.2605 200.431 84.6832V138.737C200.431 143.16 196.846 146.745 192.423 146.745H160.391V76.6752Z" fill="url(#paint9_radial_51_32)" fill-opacity="0.5"/>
</g>
<defs>
<linearGradient id="paint0_linear_51_32" x1="115.431" y1="0.821106" x2="115.431" y2="230.609" gradientUnits="userSpaceOnUse">
<stop stop-color="#B4B4E4"/>
<stop offset="0.76" stop-color="#7878A1"/>
</linearGradient>
<linearGradient id="paint1_linear_51_32" x1="115.431" y1="0.821106" x2="115.431" y2="230.609" gradientUnits="userSpaceOnUse">
<stop stop-color="#B4B4E4"/>
<stop offset="0.76" stop-color="#7878A1"/>
</linearGradient>
<linearGradient id="paint2_linear_51_32" x1="154.584" y1="111.93" x2="398.433" y2="111.93" gradientUnits="userSpaceOnUse">
<stop offset="0.2" stop-color="white"/>
<stop offset="0.65" stop-color="#FFF968" stop-opacity="0"/>
</linearGradient>
<linearGradient id="paint3_linear_51_32" x1="0.23111" y1="51.6501" x2="0.23111" y2="181.78" gradientUnits="userSpaceOnUse">
<stop stop-color="#CECAE4"/>
<stop offset="0.13" stop-color="#1E1E43"/>
</linearGradient>
<radialGradient id="paint4_radial_51_32" cx="0" cy="0" r="1" gradientUnits="userSpaceOnUse" gradientTransform="translate(160.391 116.715) rotate(-180) scale(74.1064 388.738)">
<stop stop-color="white"/>
<stop offset="0.28" stop-color="#FEFFCA" stop-opacity="0"/>
</radialGradient>
<linearGradient id="paint5_linear_51_32" x1="-162.538" y1="88.2565" x2="97.6519" y2="88.2565" gradientUnits="userSpaceOnUse">
<stop stop-color="#020017" stop-opacity="0"/>
<stop offset="1" stop-color="#514F68"/>
</linearGradient>
<linearGradient id="paint6_linear_51_32" x1="-162.538" y1="109.138" x2="97.6519" y2="109.138" gradientUnits="userSpaceOnUse">
<stop stop-color="#020017" stop-opacity="0"/>
<stop offset="1" stop-color="#514F68"/>
</linearGradient>
<linearGradient id="paint7_linear_51_32" x1="-162.538" y1="130.018" x2="97.6519" y2="130.018" gradientUnits="userSpaceOnUse">
<stop stop-color="#020017" stop-opacity="0"/>
<stop offset="1" stop-color="#514F68"/>
</linearGradient>
<linearGradient id="paint8_linear_51_32" x1="180.411" y1="76.6752" x2="180.411" y2="146.745" gradientUnits="userSpaceOnUse">
<stop stop-color="#CECAE4"/>
<stop offset="0.0001" stop-color="#CECAE4"/>
<stop offset="0.515" stop-color="#221B3F"/>
</linearGradient>
<radialGradient id="paint9_radial_51_32" cx="0" cy="0" r="1" gradientUnits="userSpaceOnUse" gradientTransform="translate(202.965 111.71) rotate(180) scale(37.3103 96.1011)">
<stop stop-color="#FDFFE3"/>
<stop offset="1" stop-color="#FDFFE5" stop-opacity="0"/>
</radialGradient>
</defs>
</svg>
